<svg xmlns="http://www.w3.org/2000/svg" viewBox="0 0 24 24">
  <path d="M19.7 8.5v7.7c0 1.4-.2 2.6-.7 3.9-.8 1.9-2.1 3-4.1 3.5-1.2.3-2.4.4-3.7.3-1-.1-2-.2-2.9-.7-1.1-.5-2.1-1.2-2.8-2.3-.4-.6-.5-1.2-.6-1.9 0-.2 0-.2.2-.2h1.7c.2 0 .2.1.2.2.1.5.3 1 .6 1.4.6.8 1.4 1.2 2.3 1.5 1.4.4 2.8.4 4.1 0 1.3-.4 2.2-1.2 2.7-2.4.4-.8.5-1.7.6-2.5.1-1.1.1-2.1.1-3.2 0-.1 0-.2-.1-.2s-.1.1-.1.2c-.5 1-1.2 1.7-2.1 2.3-.8.5-1.6.8-2.5.9-1.1.1-2.3 0-3.4-.3-1.7-.5-3-1.5-3.8-3.1-.7-1.1-1-2.3-1.1-3.6 0-.5-.1-1.1 0-1.7.1-1.9.5-3.6 1.6-5.2 1.2-1.7 2.9-2.8 5-3 1.1-.2 2-.2 3 .2.8.3 1.6.8 2.3 1.4.5.5 1 1.1 1.3 1.7 0 0 0 .1.1.1s0-.1.1-.1v-.2V.9c0-.2 0-.3.3-.3h1.6c.2 0 .3 0 .3.3-.2 2.4-.2 5.1-.2 7.6zm-7.6-6.7c-.8 0-1.7.2-2.4.5C8.4 3 7.6 4 7 5.3c-.4 1.2-.6 2.5-.6 3.8 0 .9.2 1.8.5 2.6.3 1 .9 1.8 1.7 2.4 1.3 1.1 2.8 1.4 4.4 1.1 1.4-.2 2.6-1.1 3.3-2.3.9-1.4 1.1-2.9 1.2-4.4 0-.5-.1-1.1-.2-1.7-.3-1.6-.8-2.9-2-4-.4-.3-.8-.5-1.1-.8-.7-.2-1.4-.2-2.1-.2z"/>
</svg>
