<?xml version="1.0" encoding="utf-8"?>
<!-- Generator: Adobe Illustrator 22.0.1, SVG Export Plug-In . SVG Version: 6.00 Build 0)  -->
<svg version="1.1" id="Layer_1" xmlns="http://www.w3.org/2000/svg" xmlns:xlink="http://www.w3.org/1999/xlink" x="0px" y="0px"
	 viewBox="0 0 24 24" style="enable-background:new 0 0 24 24;" xml:space="preserve">
<g>
	<path d="M8.6,8.2h4.7v2.4h0.1c0.7-1.2,2.3-2.4,4.7-2.4c5,0,5.9,3.1,5.9,7.2v8.3h-4.9v-7.3c0-1.7,0-4-2.6-4c-2.6,0-3,1.9-3,3.9v7.4
		H8.6C8.6,23.6,8.6,8.2,8.6,8.2z"/>
	<path d="M0,8.2h5.1v15.4H0V8.2z"/>
	<path d="M5.1,3.9c0,1.4-1.2,2.6-2.6,2.6S0,5.3,0,3.9s1.2-2.6,2.6-2.6S5.1,2.5,5.1,3.9z"/>
</g>
</svg>
